<?xml version="1.0" encoding="iso-8859-1"?>
<!-- Generator: Adobe Illustrator 19.0.0, SVG Export Plug-In . SVG Version: 6.00 Build 0)  -->
<svg version="1.1" id="Layer_1" xmlns="http://www.w3.org/2000/svg" xmlns:xlink="http://www.w3.org/1999/xlink" x="0px" y="0px"
	 viewBox="0 0 512 512" style="enable-background:new 0 0 512 512;" xml:space="preserve">
<g>
	<g>
		<path d="M220.271,232.626v46.747c0,14.264,8.405,26.598,20.52,32.321v-111.39C228.676,206.029,220.271,218.362,220.271,232.626z"
			/>
	</g>
</g>
<g>
	<g>
		<path d="M437.019,74.98C388.667,26.628,324.38,0,256,0S123.333,26.628,74.98,74.98C26.628,123.333,0,187.619,0,256
			c0,68.381,26.628,132.668,74.98,181.02C123.333,485.372,187.619,512,256,512c68.381,0,132.668-26.628,181.02-74.98
			S512,324.381,512,256S485.371,123.333,437.019,74.98z M447.506,170.258c5.987,13.355,10.575,27.383,13.634,41.695l-29.745,6.358
			c-2.613-12.223-6.531-24.203-11.645-35.609L447.506,170.258z M277.554,47.318l-3.09,30.26
			c-12.373-1.263-25.143-1.244-37.523,0.063l-3.19-30.25C248.207,45.866,263.102,45.843,277.554,47.318z M190.857,56.538
			l9.438,28.917c-11.869,3.874-23.377,9.025-34.202,15.309l-15.271-26.306C163.491,67.103,176.961,61.075,190.857,56.538z
			 M115.417,100.299l20.391,22.57c-9.289,8.392-17.724,17.78-25.07,27.901l-24.617-17.867
			C94.706,121.074,104.562,110.104,115.417,100.299z M64.211,170.892l27.796,12.352c-5.078,11.426-8.956,23.421-11.527,35.653
			l-29.766-6.258C53.725,198.317,58.266,184.27,64.211,170.892z M46.224,256.233l30.417-0.033
			c0.014,12.57,1.333,25.117,3.922,37.293l-29.753,6.325C47.783,285.578,46.24,270.914,46.224,256.233z M86.383,379.458
			c-8.627-11.834-16.025-24.596-21.984-37.929l27.769-12.413c5.093,11.395,11.417,22.304,18.795,32.424L86.383,379.458z
			 M151.212,437.768c-12.649-7.307-24.583-15.977-35.468-25.77l20.343-22.614c9.315,8.379,19.522,15.796,30.34,22.045
			L151.212,437.768z M234.213,464.658c-14.583-1.506-29.023-4.552-42.921-9.055l9.375-28.936c11.87,3.845,24.208,6.447,36.671,7.735
			L234.213,464.658z M278.017,464.633l-3.157-30.253c12.458-1.301,24.79-3.916,36.655-7.774l9.405,28.927
			C307.029,460.051,292.594,463.112,278.017,464.633z M291.729,279.374h30.417c0,31.238-21.775,57.47-50.938,64.362v35.575h-30.417
			v-35.575c-29.163-6.892-50.938-33.123-50.938-64.362v-46.747c0-31.238,21.775-57.47,50.938-64.362V132.69h30.417v35.575
			c29.163,6.892,50.938,33.123,50.938,64.362h-30.417c0-14.264-8.405-26.598-20.52-32.321v111.39
			C283.324,305.971,291.729,293.637,291.729,279.374z M311.141,85.273l9.342-28.947c13.913,4.491,27.405,10.476,40.1,17.79
			l-15.184,26.355C334.551,94.221,323.026,89.107,311.141,85.273z M360.976,437.658l-15.242-26.323
			c10.81-6.259,21.009-13.686,30.311-22.071l20.366,22.593C385.539,421.658,373.617,430.339,360.976,437.658z M375.764,122.482
			l20.319-22.635c10.883,9.77,20.775,20.707,29.398,32.508l-24.56,17.946C393.542,140.202,385.078,130.843,375.764,122.482z
			 M425.741,379.287l-24.597-17.893c7.37-10.131,13.685-21.05,18.767-32.455l27.782,12.383
			C441.745,354.666,434.359,367.439,425.741,379.287z M461.238,299.589l-29.759-6.291c2.575-12.179,3.88-24.728,3.88-37.299v-0.381
			l30.417-0.104v0.486C465.776,270.679,464.249,285.344,461.238,299.589z"/>
	</g>
</g>
<g>
</g>
<g>
</g>
<g>
</g>
<g>
</g>
<g>
</g>
<g>
</g>
<g>
</g>
<g>
</g>
<g>
</g>
<g>
</g>
<g>
</g>
<g>
</g>
<g>
</g>
<g>
</g>
<g>
</g>
</svg>
