<svg xmlns="http://www.w3.org/2000/svg" version="1.1" xmlns:xlink="http://www.w3.org/1999/xlink" xmlns:svgjs="http://svgjs.com/svgjs" width="1080" height="720" preserveAspectRatio="none" viewBox="0 0 1080 720"><g mask="url(&quot;#SvgjsMask1092&quot;)" fill="none"><rect width="1080" height="720" x="0" y="0" fill="rgba(27, 27, 27, 1)"></rect><path d="M-46.17 501.07L-46.17 501.07" stroke="rgba(73, 18, 87, 1)" stroke-width="1.5"></path><path d="M-46.17 501.07L-58.87 598.92" stroke="rgba(73, 18, 87, 1)" stroke-width="1.5"></path><path d="M-46.17 501.07L47.1 468.68" stroke="rgba(73, 18, 87, 1)" stroke-width="1.5"></path><path d="M-46.17 501.07L185.88 474.84" stroke="rgba(73, 18, 87, 1)" stroke-width="1.5"></path><path d="M-46.17 501.07L-35.3 753.23" stroke="rgba(73, 18, 87, 1)" stroke-width="1.5"></path><path d="M-58.87 598.92L-58.87 598.92" stroke="rgba(73, 18, 87, 1)" stroke-width="1.5"></path><path d="M-58.87 598.92L-35.3 753.23" stroke="rgba(73, 18, 87, 1)" stroke-width="1.5"></path><path d="M-35.3 753.23L-35.3 753.23" stroke="rgba(73, 18, 87, 1)" stroke-width="1.5"></path><path d="M-35.3 753.23L35.86 773.34" stroke="rgba(73, 18, 87, 1)" stroke-width="1.5"></path><path d="M-35.3 753.23L-44.03 896.25" stroke="rgba(73, 18, 87, 1)" stroke-width="1.5"></path><path d="M-44.03 896.25L-44.03 896.25" stroke="rgba(73, 18, 87, 1)" stroke-width="1.5"></path><path d="M-44.03 896.25L71.82 895.28" stroke="rgba(73, 18, 87, 1)" stroke-width="1.5"></path><path d="M-44.03 896.25L35.86 773.34" stroke="rgba(73, 18, 87, 1)" stroke-width="1.5"></path><path d="M-44.03 896.25L186.36 893.05" stroke="rgba(73, 18, 87, 1)" stroke-width="1.5"></path><path d="M47.1 468.68L47.1 468.68" stroke="rgba(73, 18, 87, 1)" stroke-width="1.5"></path><path d="M47.1 468.68L185.88 474.84" stroke="rgba(73, 18, 87, 1)" stroke-width="1.5"></path><path d="M47.1 468.68L-58.87 598.92" stroke="rgba(73, 18, 87, 1)" stroke-width="1.5"></path><path d="M35.86 773.34L35.86 773.34" stroke="rgba(73, 18, 87, 1)" stroke-width="1.5"></path><path d="M35.86 773.34L71.82 895.28" stroke="rgba(73, 18, 87, 1)" stroke-width="1.5"></path><path d="M35.86 773.34L174.13 757.46" stroke="rgba(73, 18, 87, 1)" stroke-width="1.5"></path><path d="M35.86 773.34L186.36 893.05" stroke="rgba(73, 18, 87, 1)" stroke-width="1.5"></path><path d="M35.86 773.34L-58.87 598.92" stroke="rgba(73, 18, 87, 1)" stroke-width="1.5"></path><path d="M71.82 895.28L71.82 895.28" stroke="rgba(73, 18, 87, 1)" stroke-width="1.5"></path><path d="M71.82 895.28L186.36 893.05" stroke="rgba(73, 18, 87, 1)" stroke-width="1.5"></path><path d="M185.88 474.84L185.88 474.84" stroke="rgba(73, 18, 87, 1)" stroke-width="1.5"></path><path d="M185.88 474.84L232.53 581.39" stroke="rgba(73, 18, 87, 1)" stroke-width="1.5"></path><path d="M185.88 474.84L326.91 618.08" stroke="rgba(73, 18, 87, 1)" stroke-width="1.5"></path><path d="M185.88 474.84L-58.87 598.92" stroke="rgba(73, 18, 87, 1)" stroke-width="1.5"></path><path d="M232.53 581.39L232.53 581.39" stroke="rgba(73, 18, 87, 1)" stroke-width="1.5"></path><path d="M232.53 581.39L326.91 618.08" stroke="rgba(73, 18, 87, 1)" stroke-width="1.5"></path><path d="M174.13 757.46L174.13 757.46" stroke="rgba(73, 18, 87, 1)" stroke-width="1.5"></path><path d="M174.13 757.46L186.36 893.05" stroke="rgba(73, 18, 87, 1)" stroke-width="1.5"></path><path d="M174.13 757.46L319.16 727.12" stroke="rgba(73, 18, 87, 1)" stroke-width="1.5"></path><path d="M174.13 757.46L71.82 895.28" stroke="rgba(73, 18, 87, 1)" stroke-width="1.5"></path><path d="M186.36 893.05L186.36 893.05" stroke="rgba(73, 18, 87, 1)" stroke-width="1.5"></path><path d="M326.91 618.08L326.91 618.08" stroke="rgba(73, 18, 87, 1)" stroke-width="1.5"></path><path d="M326.91 618.08L319.16 727.12" stroke="rgba(73, 18, 87, 1)" stroke-width="1.5"></path><path d="M326.91 618.08L444.32 585.47" stroke="rgba(73, 18, 87, 1)" stroke-width="1.5"></path><path d="M319.16 727.12L319.16 727.12" stroke="rgba(73, 18, 87, 1)" stroke-width="1.5"></path><path d="M319.16 727.12L360.23 867.09" stroke="rgba(73, 18, 87, 1)" stroke-width="1.5"></path><path d="M319.16 727.12L459.42 771.88" stroke="rgba(73, 18, 87, 1)" stroke-width="1.5"></path><path d="M319.16 727.12L232.53 581.39" stroke="rgba(73, 18, 87, 1)" stroke-width="1.5"></path><path d="M319.16 727.12L444.32 585.47" stroke="rgba(73, 18, 87, 1)" stroke-width="1.5"></path><path d="M360.23 867.09L360.23 867.09" stroke="rgba(73, 18, 87, 1)" stroke-width="1.5"></path><path d="M360.23 867.09L459.42 771.88" stroke="rgba(73, 18, 87, 1)" stroke-width="1.5"></path><path d="M360.23 867.09L505.45 897.74" stroke="rgba(73, 18, 87, 1)" stroke-width="1.5"></path><path d="M471.79 340.68L471.79 340.68" stroke="rgba(73, 18, 87, 1)" stroke-width="1.5"></path><path d="M471.79 340.68L490.23 471.26" stroke="rgba(73, 18, 87, 1)" stroke-width="1.5"></path><path d="M471.79 340.68L616.56 328.29" stroke="rgba(73, 18, 87, 1)" stroke-width="1.5"></path><path d="M471.79 340.68L621.15 474" stroke="rgba(73, 18, 87, 1)" stroke-width="1.5"></path><path d="M471.79 340.68L619.02 175.86" stroke="rgba(73, 18, 87, 1)" stroke-width="1.5"></path><path d="M471.79 340.68L444.32 585.47" stroke="rgba(73, 18, 87, 1)" stroke-width="1.5"></path><path d="M471.79 340.68L731.49 333.81" stroke="rgba(73, 18, 87, 1)" stroke-width="1.5"></path><path d="M490.23 471.26L490.23 471.26" stroke="rgba(73, 18, 87, 1)" stroke-width="1.5"></path><path d="M490.23 471.26L444.32 585.47" stroke="rgba(73, 18, 87, 1)" stroke-width="1.5"></path><path d="M490.23 471.26L621.15 474" stroke="rgba(73, 18, 87, 1)" stroke-width="1.5"></path><path d="M490.23 471.26L616.56 328.29" stroke="rgba(73, 18, 87, 1)" stroke-width="1.5"></path><path d="M444.32 585.47L444.32 585.47" stroke="rgba(73, 18, 87, 1)" stroke-width="1.5"></path><path d="M444.32 585.47L593.03 634.4" stroke="rgba(73, 18, 87, 1)" stroke-width="1.5"></path><path d="M444.32 585.47L459.42 771.88" stroke="rgba(73, 18, 87, 1)" stroke-width="1.5"></path><path d="M459.42 771.88L459.42 771.88" stroke="rgba(73, 18, 87, 1)" stroke-width="1.5"></path><path d="M459.42 771.88L575.05 762.1" stroke="rgba(73, 18, 87, 1)" stroke-width="1.5"></path><path d="M459.42 771.88L505.45 897.74" stroke="rgba(73, 18, 87, 1)" stroke-width="1.5"></path><path d="M459.42 771.88L593.03 634.4" stroke="rgba(73, 18, 87, 1)" stroke-width="1.5"></path><path d="M505.45 897.74L505.45 897.74" stroke="rgba(73, 18, 87, 1)" stroke-width="1.5"></path><path d="M505.45 897.74L575.05 762.1" stroke="rgba(73, 18, 87, 1)" stroke-width="1.5"></path><path d="M505.45 897.74L719.3 865.33" stroke="rgba(73, 18, 87, 1)" stroke-width="1.5"></path><path d="M505.45 897.74L319.16 727.12" stroke="rgba(73, 18, 87, 1)" stroke-width="1.5"></path><path d="M505.45 897.74L593.03 634.4" stroke="rgba(73, 18, 87, 1)" stroke-width="1.5"></path><path d="M637.48 90.5L637.48 90.5" stroke="rgba(73, 18, 87, 1)" stroke-width="1.5"></path><path d="M637.48 90.5L708.84 83.49" stroke="rgba(73, 18, 87, 1)" stroke-width="1.5"></path><path d="M637.48 90.5L619.02 175.86" stroke="rgba(73, 18, 87, 1)" stroke-width="1.5"></path><path d="M637.48 90.5L754.82 189.58" stroke="rgba(73, 18, 87, 1)" stroke-width="1.5"></path><path d="M637.48 90.5L724.99 -74.56" stroke="rgba(73, 18, 87, 1)" stroke-width="1.5"></path><path d="M637.48 90.5L860.43 43.13" stroke="rgba(73, 18, 87, 1)" stroke-width="1.5"></path><path d="M637.48 90.5L616.56 328.29" stroke="rgba(73, 18, 87, 1)" stroke-width="1.5"></path><path d="M619.02 175.86L619.02 175.86" stroke="rgba(73, 18, 87, 1)" stroke-width="1.5"></path><path d="M619.02 175.86L708.84 83.49" stroke="rgba(73, 18, 87, 1)" stroke-width="1.5"></path><path d="M616.56 328.29L616.56 328.29" stroke="rgba(73, 18, 87, 1)" stroke-width="1.5"></path><path d="M616.56 328.29L731.49 333.81" stroke="rgba(73, 18, 87, 1)" stroke-width="1.5"></path><path d="M616.56 328.29L621.15 474" stroke="rgba(73, 18, 87, 1)" stroke-width="1.5"></path><path d="M621.15 474L621.15 474" stroke="rgba(73, 18, 87, 1)" stroke-width="1.5"></path><path d="M621.15 474L767.52 454.34" stroke="rgba(73, 18, 87, 1)" stroke-width="1.5"></path><path d="M621.15 474L593.03 634.4" stroke="rgba(73, 18, 87, 1)" stroke-width="1.5"></path><path d="M621.15 474L731.49 333.81" stroke="rgba(73, 18, 87, 1)" stroke-width="1.5"></path><path d="M593.03 634.4L593.03 634.4" stroke="rgba(73, 18, 87, 1)" stroke-width="1.5"></path><path d="M593.03 634.4L575.05 762.1" stroke="rgba(73, 18, 87, 1)" stroke-width="1.5"></path><path d="M575.05 762.1L575.05 762.1" stroke="rgba(73, 18, 87, 1)" stroke-width="1.5"></path><path d="M575.05 762.1L719.3 865.33" stroke="rgba(73, 18, 87, 1)" stroke-width="1.5"></path><path d="M575.05 762.1L761.07 771.82" stroke="rgba(73, 18, 87, 1)" stroke-width="1.5"></path><path d="M575.05 762.1L444.32 585.47" stroke="rgba(73, 18, 87, 1)" stroke-width="1.5"></path><path d="M724.99 -74.56L724.99 -74.56" stroke="rgba(73, 18, 87, 1)" stroke-width="1.5"></path><path d="M724.99 -74.56L852.99 -49.35" stroke="rgba(73, 18, 87, 1)" stroke-width="1.5"></path><path d="M724.99 -74.56L708.84 83.49" stroke="rgba(73, 18, 87, 1)" stroke-width="1.5"></path><path d="M724.99 -74.56L860.43 43.13" stroke="rgba(73, 18, 87, 1)" stroke-width="1.5"></path><path d="M708.84 83.49L708.84 83.49" stroke="rgba(73, 18, 87, 1)" stroke-width="1.5"></path><path d="M708.84 83.49L754.82 189.58" stroke="rgba(73, 18, 87, 1)" stroke-width="1.5"></path><path d="M754.82 189.58L754.82 189.58" stroke="rgba(73, 18, 87, 1)" stroke-width="1.5"></path><path d="M754.82 189.58L878.89 212.67" stroke="rgba(73, 18, 87, 1)" stroke-width="1.5"></path><path d="M754.82 189.58L619.02 175.86" stroke="rgba(73, 18, 87, 1)" stroke-width="1.5"></path><path d="M754.82 189.58L731.49 333.81" stroke="rgba(73, 18, 87, 1)" stroke-width="1.5"></path><path d="M754.82 189.58L860.43 43.13" stroke="rgba(73, 18, 87, 1)" stroke-width="1.5"></path><path d="M731.49 333.81L731.49 333.81" stroke="rgba(73, 18, 87, 1)" stroke-width="1.5"></path><path d="M731.49 333.81L767.52 454.34" stroke="rgba(73, 18, 87, 1)" stroke-width="1.5"></path><path d="M731.49 333.81L895.2 311.19" stroke="rgba(73, 18, 87, 1)" stroke-width="1.5"></path><path d="M731.49 333.81L844.07 460.99" stroke="rgba(73, 18, 87, 1)" stroke-width="1.5"></path><path d="M767.52 454.34L767.52 454.34" stroke="rgba(73, 18, 87, 1)" stroke-width="1.5"></path><path d="M767.52 454.34L844.07 460.99" stroke="rgba(73, 18, 87, 1)" stroke-width="1.5"></path><path d="M767.52 454.34L895.2 311.19" stroke="rgba(73, 18, 87, 1)" stroke-width="1.5"></path><path d="M767.52 454.34L874.55 613.71" stroke="rgba(73, 18, 87, 1)" stroke-width="1.5"></path><path d="M761.07 771.82L761.07 771.82" stroke="rgba(73, 18, 87, 1)" stroke-width="1.5"></path><path d="M761.07 771.82L719.3 865.33" stroke="rgba(73, 18, 87, 1)" stroke-width="1.5"></path><path d="M761.07 771.82L902.21 746.11" stroke="rgba(73, 18, 87, 1)" stroke-width="1.5"></path><path d="M761.07 771.82L886.71 908.15" stroke="rgba(73, 18, 87, 1)" stroke-width="1.5"></path><path d="M719.3 865.33L719.3 865.33" stroke="rgba(73, 18, 87, 1)" stroke-width="1.5"></path><path d="M719.3 865.33L886.71 908.15" stroke="rgba(73, 18, 87, 1)" stroke-width="1.5"></path><path d="M852.99 -49.35L852.99 -49.35" stroke="rgba(73, 18, 87, 1)" stroke-width="1.5"></path><path d="M852.99 -49.35L860.43 43.13" stroke="rgba(73, 18, 87, 1)" stroke-width="1.5"></path><path d="M852.99 -49.35L1020.05 -51.46" stroke="rgba(73, 18, 87, 1)" stroke-width="1.5"></path><path d="M852.99 -49.35L708.84 83.49" stroke="rgba(73, 18, 87, 1)" stroke-width="1.5"></path><path d="M860.43 43.13L860.43 43.13" stroke="rgba(73, 18, 87, 1)" stroke-width="1.5"></path><path d="M860.43 43.13L708.84 83.49" stroke="rgba(73, 18, 87, 1)" stroke-width="1.5"></path><path d="M860.43 43.13L878.89 212.67" stroke="rgba(73, 18, 87, 1)" stroke-width="1.5"></path><path d="M860.43 43.13L1032.24 80.08" stroke="rgba(73, 18, 87, 1)" stroke-width="1.5"></path><path d="M878.89 212.67L878.89 212.67" stroke="rgba(73, 18, 87, 1)" stroke-width="1.5"></path><path d="M878.89 212.67L895.2 311.19" stroke="rgba(73, 18, 87, 1)" stroke-width="1.5"></path><path d="M878.89 212.67L1033.97 188.63" stroke="rgba(73, 18, 87, 1)" stroke-width="1.5"></path><path d="M895.2 311.19L895.2 311.19" stroke="rgba(73, 18, 87, 1)" stroke-width="1.5"></path><path d="M895.2 311.19L1014.62 316.04" stroke="rgba(73, 18, 87, 1)" stroke-width="1.5"></path><path d="M895.2 311.19L844.07 460.99" stroke="rgba(73, 18, 87, 1)" stroke-width="1.5"></path><path d="M844.07 460.99L844.07 460.99" stroke="rgba(73, 18, 87, 1)" stroke-width="1.5"></path><path d="M844.07 460.99L995.99 466.32" stroke="rgba(73, 18, 87, 1)" stroke-width="1.5"></path><path d="M874.55 613.71L874.55 613.71" stroke="rgba(73, 18, 87, 1)" stroke-width="1.5"></path><path d="M874.55 613.71L902.21 746.11" stroke="rgba(73, 18, 87, 1)" stroke-width="1.5"></path><path d="M874.55 613.71L844.07 460.99" stroke="rgba(73, 18, 87, 1)" stroke-width="1.5"></path><path d="M902.21 746.11L902.21 746.11" stroke="rgba(73, 18, 87, 1)" stroke-width="1.5"></path><path d="M902.21 746.11L995.58 749.74" stroke="rgba(73, 18, 87, 1)" stroke-width="1.5"></path><path d="M886.71 908.15L886.71 908.15" stroke="rgba(73, 18, 87, 1)" stroke-width="1.5"></path><path d="M886.71 908.15L1012.19 887.35" stroke="rgba(73, 18, 87, 1)" stroke-width="1.5"></path><path d="M886.71 908.15L902.21 746.11" stroke="rgba(73, 18, 87, 1)" stroke-width="1.5"></path><path d="M886.71 908.15L995.58 749.74" stroke="rgba(73, 18, 87, 1)" stroke-width="1.5"></path><path d="M886.71 908.15L874.55 613.71" stroke="rgba(73, 18, 87, 1)" stroke-width="1.5"></path><path d="M1020.05 -51.46L1020.05 -51.46" stroke="rgba(73, 18, 87, 1)" stroke-width="1.5"></path><path d="M1020.05 -51.46L1115.66 -87.65" stroke="rgba(73, 18, 87, 1)" stroke-width="1.5"></path><path d="M1020.05 -51.46L1032.24 80.08" stroke="rgba(73, 18, 87, 1)" stroke-width="1.5"></path><path d="M1032.24 80.08L1032.24 80.08" stroke="rgba(73, 18, 87, 1)" stroke-width="1.5"></path><path d="M1032.24 80.08L1033.97 188.63" stroke="rgba(73, 18, 87, 1)" stroke-width="1.5"></path><path d="M1032.24 80.08L1151.44 68.09" stroke="rgba(73, 18, 87, 1)" stroke-width="1.5"></path><path d="M1032.24 80.08L1131.3 235.08" stroke="rgba(73, 18, 87, 1)" stroke-width="1.5"></path><path d="M1033.97 188.63L1033.97 188.63" stroke="rgba(73, 18, 87, 1)" stroke-width="1.5"></path><path d="M1033.97 188.63L1131.3 235.08" stroke="rgba(73, 18, 87, 1)" stroke-width="1.5"></path><path d="M1014.62 316.04L1014.62 316.04" stroke="rgba(73, 18, 87, 1)" stroke-width="1.5"></path><path d="M1014.62 316.04L1033.97 188.63" stroke="rgba(73, 18, 87, 1)" stroke-width="1.5"></path><path d="M995.99 466.32L995.99 466.32" stroke="rgba(73, 18, 87, 1)" stroke-width="1.5"></path><path d="M995.99 466.32L1032.49 598.83" stroke="rgba(73, 18, 87, 1)" stroke-width="1.5"></path><path d="M1032.49 598.83L1032.49 598.83" stroke="rgba(73, 18, 87, 1)" stroke-width="1.5"></path><path d="M1032.49 598.83L1117.76 631.46" stroke="rgba(73, 18, 87, 1)" stroke-width="1.5"></path><path d="M995.58 749.74L995.58 749.74" stroke="rgba(73, 18, 87, 1)" stroke-width="1.5"></path><path d="M995.58 749.74L1012.19 887.35" stroke="rgba(73, 18, 87, 1)" stroke-width="1.5"></path><path d="M995.58 749.74L1138 735.77" stroke="rgba(73, 18, 87, 1)" stroke-width="1.5"></path><path d="M995.58 749.74L1032.49 598.83" stroke="rgba(73, 18, 87, 1)" stroke-width="1.5"></path><path d="M1012.19 887.35L1012.19 887.35" stroke="rgba(73, 18, 87, 1)" stroke-width="1.5"></path><path d="M1012.19 887.35L902.21 746.11" stroke="rgba(73, 18, 87, 1)" stroke-width="1.5"></path><path d="M1115.66 -87.65L1115.66 -87.65" stroke="rgba(73, 18, 87, 1)" stroke-width="1.5"></path><path d="M1115.66 -87.65L1151.44 68.09" stroke="rgba(73, 18, 87, 1)" stroke-width="1.5"></path><path d="M1115.66 -87.65L1032.24 80.08" stroke="rgba(73, 18, 87, 1)" stroke-width="1.5"></path><path d="M1151.44 68.09L1151.44 68.09" stroke="rgba(73, 18, 87, 1)" stroke-width="1.5"></path><path d="M1151.44 68.09L1131.3 235.08" stroke="rgba(73, 18, 87, 1)" stroke-width="1.5"></path><path d="M1151.44 68.09L1033.97 188.63" stroke="rgba(73, 18, 87, 1)" stroke-width="1.5"></path><path d="M1151.44 68.09L1020.05 -51.46" stroke="rgba(73, 18, 87, 1)" stroke-width="1.5"></path><path d="M1151.44 68.09L1153.72 328.98" stroke="rgba(73, 18, 87, 1)" stroke-width="1.5"></path><path d="M1131.3 235.08L1131.3 235.08" stroke="rgba(73, 18, 87, 1)" stroke-width="1.5"></path><path d="M1131.3 235.08L1153.72 328.98" stroke="rgba(73, 18, 87, 1)" stroke-width="1.5"></path><path d="M1131.3 235.08L1014.62 316.04" stroke="rgba(73, 18, 87, 1)" stroke-width="1.5"></path><path d="M1131.3 235.08L1135.62 479.41" stroke="rgba(73, 18, 87, 1)" stroke-width="1.5"></path><path d="M1153.72 328.98L1153.72 328.98" stroke="rgba(73, 18, 87, 1)" stroke-width="1.5"></path><path d="M1153.72 328.98L1014.62 316.04" stroke="rgba(73, 18, 87, 1)" stroke-width="1.5"></path><path d="M1153.72 328.98L1135.62 479.41" stroke="rgba(73, 18, 87, 1)" stroke-width="1.5"></path><path d="M1153.72 328.98L1033.97 188.63" stroke="rgba(73, 18, 87, 1)" stroke-width="1.5"></path><path d="M1153.72 328.98L995.99 466.32" stroke="rgba(73, 18, 87, 1)" stroke-width="1.5"></path><path d="M1135.62 479.41L1135.62 479.41" stroke="rgba(73, 18, 87, 1)" stroke-width="1.5"></path><path d="M1135.62 479.41L995.99 466.32" stroke="rgba(73, 18, 87, 1)" stroke-width="1.5"></path><path d="M1135.62 479.41L1117.76 631.46" stroke="rgba(73, 18, 87, 1)" stroke-width="1.5"></path><path d="M1117.76 631.46L1117.76 631.46" stroke="rgba(73, 18, 87, 1)" stroke-width="1.5"></path><path d="M1117.76 631.46L1138 735.77" stroke="rgba(73, 18, 87, 1)" stroke-width="1.5"></path><path d="M1117.76 631.46L995.58 749.74" stroke="rgba(73, 18, 87, 1)" stroke-width="1.5"></path><path d="M1117.76 631.46L995.99 466.32" stroke="rgba(73, 18, 87, 1)" stroke-width="1.5"></path><path d="M1117.76 631.46L874.55 613.71" stroke="rgba(73, 18, 87, 1)" stroke-width="1.5"></path><path d="M1138 735.77L1138 735.77" stroke="rgba(73, 18, 87, 1)" stroke-width="1.5"></path><circle r="5" cx="-46.17" cy="501.07" fill="rgba(73, 18, 87, 1)"></circle><circle r="5" cx="-58.87" cy="598.92" fill="rgba(73, 18, 87, 1)"></circle><circle r="5" cx="-35.3" cy="753.23" fill="rgba(73, 18, 87, 1)"></circle><circle r="5" cx="-44.03" cy="896.25" fill="rgba(73, 18, 87, 1)"></circle><circle r="5" cx="47.1" cy="468.68" fill="rgba(73, 18, 87, 1)"></circle><circle r="5" cx="35.86" cy="773.34" fill="rgba(73, 18, 87, 1)"></circle><circle r="5" cx="71.82" cy="895.28" fill="rgba(73, 18, 87, 1)"></circle><circle r="5" cx="185.88" cy="474.84" fill="rgba(73, 18, 87, 1)"></circle><circle r="5" cx="232.53" cy="581.39" fill="rgba(73, 18, 87, 1)"></circle><circle r="5" cx="174.13" cy="757.46" fill="rgba(73, 18, 87, 1)"></circle><circle r="5" cx="186.36" cy="893.05" fill="rgba(73, 18, 87, 1)"></circle><circle r="5" cx="326.91" cy="618.08" fill="rgba(73, 18, 87, 1)"></circle><circle r="5" cx="319.16" cy="727.12" fill="rgba(73, 18, 87, 1)"></circle><circle r="5" cx="360.23" cy="867.09" fill="rgba(73, 18, 87, 1)"></circle><circle r="5" cx="471.79" cy="340.68" fill="rgba(73, 18, 87, 1)"></circle><circle r="5" cx="490.23" cy="471.26" fill="rgba(73, 18, 87, 1)"></circle><circle r="5" cx="444.32" cy="585.47" fill="rgba(73, 18, 87, 1)"></circle><circle r="5" cx="459.42" cy="771.88" fill="rgba(73, 18, 87, 1)"></circle><circle r="5" cx="505.45" cy="897.74" fill="rgba(73, 18, 87, 1)"></circle><circle r="5" cx="637.48" cy="90.5" fill="rgba(73, 18, 87, 1)"></circle><circle r="5" cx="619.02" cy="175.86" fill="rgba(73, 18, 87, 1)"></circle><circle r="5" cx="616.56" cy="328.29" fill="rgba(73, 18, 87, 1)"></circle><circle r="5" cx="621.15" cy="474" fill="rgba(73, 18, 87, 1)"></circle><circle r="5" cx="593.03" cy="634.4" fill="rgba(73, 18, 87, 1)"></circle><circle r="5" cx="575.05" cy="762.1" fill="rgba(73, 18, 87, 1)"></circle><circle r="5" cx="724.99" cy="-74.56" fill="rgba(73, 18, 87, 1)"></circle><circle r="5" cx="708.84" cy="83.49" fill="rgba(73, 18, 87, 1)"></circle><circle r="5" cx="754.82" cy="189.58" fill="rgba(73, 18, 87, 1)"></circle><circle r="5" cx="731.49" cy="333.81" fill="rgba(73, 18, 87, 1)"></circle><circle r="5" cx="767.52" cy="454.34" fill="rgba(73, 18, 87, 1)"></circle><circle r="5" cx="761.07" cy="771.82" fill="rgba(73, 18, 87, 1)"></circle><circle r="5" cx="719.3" cy="865.33" fill="rgba(73, 18, 87, 1)"></circle><circle r="5" cx="852.99" cy="-49.35" fill="rgba(73, 18, 87, 1)"></circle><circle r="5" cx="860.43" cy="43.13" fill="rgba(73, 18, 87, 1)"></circle><circle r="5" cx="878.89" cy="212.67" fill="rgba(73, 18, 87, 1)"></circle><circle r="5" cx="895.2" cy="311.19" fill="rgba(73, 18, 87, 1)"></circle><circle r="5" cx="844.07" cy="460.99" fill="rgba(73, 18, 87, 1)"></circle><circle r="5" cx="874.55" cy="613.71" fill="rgba(73, 18, 87, 1)"></circle><circle r="5" cx="902.21" cy="746.11" fill="rgba(73, 18, 87, 1)"></circle><circle r="5" cx="886.71" cy="908.15" fill="rgba(73, 18, 87, 1)"></circle><circle r="5" cx="1020.05" cy="-51.46" fill="rgba(73, 18, 87, 1)"></circle><circle r="5" cx="1032.24" cy="80.08" fill="rgba(73, 18, 87, 1)"></circle><circle r="5" cx="1033.97" cy="188.63" fill="rgba(73, 18, 87, 1)"></circle><circle r="5" cx="1014.62" cy="316.04" fill="rgba(73, 18, 87, 1)"></circle><circle r="5" cx="995.99" cy="466.32" fill="rgba(73, 18, 87, 1)"></circle><circle r="5" cx="1032.49" cy="598.83" fill="rgba(73, 18, 87, 1)"></circle><circle r="5" cx="995.58" cy="749.74" fill="rgba(73, 18, 87, 1)"></circle><circle r="5" cx="1012.19" cy="887.35" fill="rgba(73, 18, 87, 1)"></circle><circle r="5" cx="1115.66" cy="-87.65" fill="rgba(73, 18, 87, 1)"></circle><circle r="5" cx="1151.44" cy="68.09" fill="rgba(73, 18, 87, 1)"></circle><circle r="5" cx="1131.3" cy="235.08" fill="rgba(73, 18, 87, 1)"></circle><circle r="5" cx="1153.72" cy="328.98" fill="rgba(73, 18, 87, 1)"></circle><circle r="5" cx="1135.62" cy="479.41" fill="rgba(73, 18, 87, 1)"></circle><circle r="5" cx="1117.76" cy="631.46" fill="rgba(73, 18, 87, 1)"></circle><circle r="5" cx="1138" cy="735.77" fill="rgba(73, 18, 87, 1)"></circle><path d="M-50.92 866.64L-50.92 866.64" stroke="hsl(278.79999999999995, 65.2%, 45.4%)" stroke-width="1.5"></path><path d="M-50.92 866.64L-93.78 722.06" stroke="hsl(278.79999999999995, 65.2%, 45.4%)" stroke-width="1.5"></path><path d="M-50.92 866.64L100.32 862.89" stroke="hsl(278.79999999999995, 65.2%, 45.4%)" stroke-width="1.5"></path><path d="M-50.92 866.64L86.68 742.09" stroke="hsl(278.79999999999995, 65.2%, 45.4%)" stroke-width="1.5"></path><path d="M-50.92 866.64L173.49 884.9" stroke="hsl(278.79999999999995, 65.2%, 45.4%)" stroke-width="1.5"></path><path d="M-50.92 866.64L56.75 611.8" stroke="hsl(278.79999999999995, 65.2%, 45.4%)" stroke-width="1.5"></path><path d="M56.75 611.8L56.75 611.8" stroke="hsl(278.79999999999995, 65.2%, 45.4%)" stroke-width="1.5"></path><path d="M56.75 611.8L-46.87 586.73" stroke="hsl(278.79999999999995, 65.2%, 45.4%)" stroke-width="1.5"></path><path d="M56.75 611.8L86.68 742.09" stroke="hsl(278.79999999999995, 65.2%, 45.4%)" stroke-width="1.5"></path><path d="M56.75 611.8L225.35 579.82" stroke="hsl(278.79999999999995, 65.2%, 45.4%)" stroke-width="1.5"></path><path d="M56.75 611.8L-93.78 722.06" stroke="hsl(278.79999999999995, 65.2%, 45.4%)" stroke-width="1.5"></path><path d="M100.32 862.89L100.32 862.89" stroke="hsl(278.79999999999995, 65.2%, 45.4%)" stroke-width="1.5"></path><path d="M100.32 862.89L173.49 884.9" stroke="hsl(278.79999999999995, 65.2%, 45.4%)" stroke-width="1.5"></path><path d="M100.32 862.89L86.68 742.09" stroke="hsl(278.79999999999995, 65.2%, 45.4%)" stroke-width="1.5"></path><path d="M100.32 862.89L232.7 759.89" stroke="hsl(278.79999999999995, 65.2%, 45.4%)" stroke-width="1.5"></path><path d="M100.32 862.89L-93.78 722.06" stroke="hsl(278.79999999999995, 65.2%, 45.4%)" stroke-width="1.5"></path><path d="M100.32 862.89L56.75 611.8" stroke="hsl(278.79999999999995, 65.2%, 45.4%)" stroke-width="1.5"></path><path d="M324.11 739.45L324.11 739.45" stroke="hsl(278.79999999999995, 65.2%, 45.4%)" stroke-width="1.5"></path><path d="M324.11 739.45L232.7 759.89" stroke="hsl(278.79999999999995, 65.2%, 45.4%)" stroke-width="1.5"></path><path d="M324.11 739.45L359.15 847.24" stroke="hsl(278.79999999999995, 65.2%, 45.4%)" stroke-width="1.5"></path><path d="M324.11 739.45L498.06 731.56" stroke="hsl(278.79999999999995, 65.2%, 45.4%)" stroke-width="1.5"></path><path d="M324.11 739.45L225.35 579.82" stroke="hsl(278.79999999999995, 65.2%, 45.4%)" stroke-width="1.5"></path><path d="M449.95 900.32L449.95 900.32" stroke="hsl(278.79999999999995, 65.2%, 45.4%)" stroke-width="1.5"></path><path d="M449.95 900.32L359.15 847.24" stroke="hsl(278.79999999999995, 65.2%, 45.4%)" stroke-width="1.5"></path><path d="M449.95 900.32L498.06 731.56" stroke="hsl(278.79999999999995, 65.2%, 45.4%)" stroke-width="1.5"></path><path d="M629.76 635.55L629.76 635.55" stroke="hsl(278.79999999999995, 65.2%, 45.4%)" stroke-width="1.5"></path><path d="M629.76 635.55L715.89 612.34" stroke="hsl(278.79999999999995, 65.2%, 45.4%)" stroke-width="1.5"></path><path d="M629.76 635.55L604.42 723.5" stroke="hsl(278.79999999999995, 65.2%, 45.4%)" stroke-width="1.5"></path><path d="M724.33 767.46L724.33 767.46" stroke="hsl(278.79999999999995, 65.2%, 45.4%)" stroke-width="1.5"></path><path d="M724.33 767.46L772.75 873.56" stroke="hsl(278.79999999999995, 65.2%, 45.4%)" stroke-width="1.5"></path><path d="M772.75 873.56L772.75 873.56" stroke="hsl(278.79999999999995, 65.2%, 45.4%)" stroke-width="1.5"></path><path d="M772.75 873.56L903.18 849.07" stroke="hsl(278.79999999999995, 65.2%, 45.4%)" stroke-width="1.5"></path><path d="M859.49 610.68L859.49 610.68" stroke="hsl(278.79999999999995, 65.2%, 45.4%)" stroke-width="1.5"></path><path d="M859.49 610.68L844.37 506.08" stroke="hsl(278.79999999999995, 65.2%, 45.4%)" stroke-width="1.5"></path><path d="M859.49 610.68L989.3 590.23" stroke="hsl(278.79999999999995, 65.2%, 45.4%)" stroke-width="1.5"></path><path d="M859.49 610.68L715.89 612.34" stroke="hsl(278.79999999999995, 65.2%, 45.4%)" stroke-width="1.5"></path><path d="M859.49 610.68L896.45 760.07" stroke="hsl(278.79999999999995, 65.2%, 45.4%)" stroke-width="1.5"></path><path d="M859.49 610.68L980.9 479.15" stroke="hsl(278.79999999999995, 65.2%, 45.4%)" stroke-width="1.5"></path><path d="M859.49 610.68L724.33 767.46" stroke="hsl(278.79999999999995, 65.2%, 45.4%)" stroke-width="1.5"></path><path d="M994.64 193.3L994.64 193.3" stroke="hsl(278.79999999999995, 65.2%, 45.4%)" stroke-width="1.5"></path><path d="M994.64 193.3L861.02 196.46" stroke="hsl(278.79999999999995, 65.2%, 45.4%)" stroke-width="1.5"></path><path d="M994.64 193.3L992.43 42.79" stroke="hsl(278.79999999999995, 65.2%, 45.4%)" stroke-width="1.5"></path><path d="M994.64 193.3L1146.26 174.03" stroke="hsl(278.79999999999995, 65.2%, 45.4%)" stroke-width="1.5"></path><path d="M994.64 193.3L895.76 315.06" stroke="hsl(278.79999999999995, 65.2%, 45.4%)" stroke-width="1.5"></path><path d="M980.9 479.15L980.9 479.15" stroke="hsl(278.79999999999995, 65.2%, 45.4%)" stroke-width="1.5"></path><path d="M980.9 479.15L989.3 590.23" stroke="hsl(278.79999999999995, 65.2%, 45.4%)" stroke-width="1.5"></path><path d="M980.9 479.15L1003.55 361.54" stroke="hsl(278.79999999999995, 65.2%, 45.4%)" stroke-width="1.5"></path><path d="M980.9 479.15L844.37 506.08" stroke="hsl(278.79999999999995, 65.2%, 45.4%)" stroke-width="1.5"></path><path d="M980.9 479.15L895.76 315.06" stroke="hsl(278.79999999999995, 65.2%, 45.4%)" stroke-width="1.5"></path><path d="M1134.7 -98.18L1134.7 -98.18" stroke="hsl(278.79999999999995, 65.2%, 45.4%)" stroke-width="1.5"></path><path d="M1134.7 -98.18L1169.98 42.94" stroke="hsl(278.79999999999995, 65.2%, 45.4%)" stroke-width="1.5"></path><path d="M1134.7 -98.18L989.17 -54.37" stroke="hsl(278.79999999999995, 65.2%, 45.4%)" stroke-width="1.5"></path><path d="M1134.7 -98.18L992.43 42.79" stroke="hsl(278.79999999999995, 65.2%, 45.4%)" stroke-width="1.5"></path><path d="M1134.7 -98.18L910.61 -94.77" stroke="hsl(278.79999999999995, 65.2%, 45.4%)" stroke-width="1.5"></path><path d="M1169.98 42.94L1169.98 42.94" stroke="hsl(278.79999999999995, 65.2%, 45.4%)" stroke-width="1.5"></path><path d="M1169.98 42.94L1146.26 174.03" stroke="hsl(278.79999999999995, 65.2%, 45.4%)" stroke-width="1.5"></path><path d="M1169.98 42.94L992.43 42.79" stroke="hsl(278.79999999999995, 65.2%, 45.4%)" stroke-width="1.5"></path><path d="M1146.26 174.03L1146.26 174.03" stroke="hsl(278.79999999999995, 65.2%, 45.4%)" stroke-width="1.5"></path><path d="M1121.77 354.27L1121.77 354.27" stroke="hsl(278.79999999999995, 65.2%, 45.4%)" stroke-width="1.5"></path><path d="M1121.77 354.27L1003.55 361.54" stroke="hsl(278.79999999999995, 65.2%, 45.4%)" stroke-width="1.5"></path><path d="M1121.77 354.27L1180.29 491.03" stroke="hsl(278.79999999999995, 65.2%, 45.4%)" stroke-width="1.5"></path><path d="M1121.77 354.27L1146.26 174.03" stroke="hsl(278.79999999999995, 65.2%, 45.4%)" stroke-width="1.5"></path><path d="M1180.29 491.03L1180.29 491.03" stroke="hsl(278.79999999999995, 65.2%, 45.4%)" stroke-width="1.5"></path><path d="M1180.29 491.03L1157.07 633.22" stroke="hsl(278.79999999999995, 65.2%, 45.4%)" stroke-width="1.5"></path><path d="M1180.29 491.03L980.9 479.15" stroke="hsl(278.79999999999995, 65.2%, 45.4%)" stroke-width="1.5"></path><path d="M-46.87 586.73L-46.87 586.73" stroke="hsl(278.79999999999995, 65.2%, 45.4%)" stroke-width="1.5"></path><path d="M-46.87 586.73L-93.78 722.06" stroke="hsl(278.79999999999995, 65.2%, 45.4%)" stroke-width="1.5"></path><path d="M-46.87 586.73L86.68 742.09" stroke="hsl(278.79999999999995, 65.2%, 45.4%)" stroke-width="1.5"></path><path d="M-93.78 722.06L-93.78 722.06" stroke="hsl(278.79999999999995, 65.2%, 45.4%)" stroke-width="1.5"></path><path d="M-93.78 722.06L86.68 742.09" stroke="hsl(278.79999999999995, 65.2%, 45.4%)" stroke-width="1.5"></path><path d="M86.68 742.09L86.68 742.09" stroke="hsl(278.79999999999995, 65.2%, 45.4%)" stroke-width="1.5"></path><path d="M86.68 742.09L232.7 759.89" stroke="hsl(278.79999999999995, 65.2%, 45.4%)" stroke-width="1.5"></path><path d="M225.35 579.82L225.35 579.82" stroke="hsl(278.79999999999995, 65.2%, 45.4%)" stroke-width="1.5"></path><path d="M225.35 579.82L232.7 759.89" stroke="hsl(278.79999999999995, 65.2%, 45.4%)" stroke-width="1.5"></path><path d="M225.35 579.82L86.68 742.09" stroke="hsl(278.79999999999995, 65.2%, 45.4%)" stroke-width="1.5"></path><path d="M225.35 579.82L481.05 506.25" stroke="hsl(278.79999999999995, 65.2%, 45.4%)" stroke-width="1.5"></path><path d="M232.7 759.89L232.7 759.89" stroke="hsl(278.79999999999995, 65.2%, 45.4%)" stroke-width="1.5"></path><path d="M232.7 759.89L173.49 884.9" stroke="hsl(278.79999999999995, 65.2%, 45.4%)" stroke-width="1.5"></path><path d="M232.7 759.89L359.15 847.24" stroke="hsl(278.79999999999995, 65.2%, 45.4%)" stroke-width="1.5"></path><path d="M173.49 884.9L173.49 884.9" stroke="hsl(278.79999999999995, 65.2%, 45.4%)" stroke-width="1.5"></path><path d="M359.15 847.24L359.15 847.24" stroke="hsl(278.79999999999995, 65.2%, 45.4%)" stroke-width="1.5"></path><path d="M481.05 506.25L481.05 506.25" stroke="hsl(278.79999999999995, 65.2%, 45.4%)" stroke-width="1.5"></path><path d="M481.05 506.25L495.63 611.99" stroke="hsl(278.79999999999995, 65.2%, 45.4%)" stroke-width="1.5"></path><path d="M481.05 506.25L609.68 461.33" stroke="hsl(278.79999999999995, 65.2%, 45.4%)" stroke-width="1.5"></path><path d="M481.05 506.25L629.76 635.55" stroke="hsl(278.79999999999995, 65.2%, 45.4%)" stroke-width="1.5"></path><path d="M495.63 611.99L495.63 611.99" stroke="hsl(278.79999999999995, 65.2%, 45.4%)" stroke-width="1.5"></path><path d="M495.63 611.99L498.06 731.56" stroke="hsl(278.79999999999995, 65.2%, 45.4%)" stroke-width="1.5"></path><path d="M495.63 611.99L629.76 635.55" stroke="hsl(278.79999999999995, 65.2%, 45.4%)" stroke-width="1.5"></path><path d="M498.06 731.56L498.06 731.56" stroke="hsl(278.79999999999995, 65.2%, 45.4%)" stroke-width="1.5"></path><path d="M498.06 731.56L604.42 723.5" stroke="hsl(278.79999999999995, 65.2%, 45.4%)" stroke-width="1.5"></path><path d="M498.06 731.56L629.76 635.55" stroke="hsl(278.79999999999995, 65.2%, 45.4%)" stroke-width="1.5"></path><path d="M498.06 731.56L359.15 847.24" stroke="hsl(278.79999999999995, 65.2%, 45.4%)" stroke-width="1.5"></path><path d="M609.68 461.33L609.68 461.33" stroke="hsl(278.79999999999995, 65.2%, 45.4%)" stroke-width="1.5"></path><path d="M609.68 461.33L738.73 442.02" stroke="hsl(278.79999999999995, 65.2%, 45.4%)" stroke-width="1.5"></path><path d="M609.68 461.33L740.17 359.08" stroke="hsl(278.79999999999995, 65.2%, 45.4%)" stroke-width="1.5"></path><path d="M604.42 723.5L604.42 723.5" stroke="hsl(278.79999999999995, 65.2%, 45.4%)" stroke-width="1.5"></path><path d="M604.42 723.5L724.33 767.46" stroke="hsl(278.79999999999995, 65.2%, 45.4%)" stroke-width="1.5"></path><path d="M629.19 884.09L629.19 884.09" stroke="hsl(278.79999999999995, 65.2%, 45.4%)" stroke-width="1.5"></path><path d="M629.19 884.09L772.75 873.56" stroke="hsl(278.79999999999995, 65.2%, 45.4%)" stroke-width="1.5"></path><path d="M629.19 884.09L724.33 767.46" stroke="hsl(278.79999999999995, 65.2%, 45.4%)" stroke-width="1.5"></path><path d="M740.17 359.08L740.17 359.08" stroke="hsl(278.79999999999995, 65.2%, 45.4%)" stroke-width="1.5"></path><path d="M740.17 359.08L738.73 442.02" stroke="hsl(278.79999999999995, 65.2%, 45.4%)" stroke-width="1.5"></path><path d="M740.17 359.08L895.76 315.06" stroke="hsl(278.79999999999995, 65.2%, 45.4%)" stroke-width="1.5"></path><path d="M740.17 359.08L844.37 506.08" stroke="hsl(278.79999999999995, 65.2%, 45.4%)" stroke-width="1.5"></path><path d="M738.73 442.02L738.73 442.02" stroke="hsl(278.79999999999995, 65.2%, 45.4%)" stroke-width="1.5"></path><path d="M738.73 442.02L844.37 506.08" stroke="hsl(278.79999999999995, 65.2%, 45.4%)" stroke-width="1.5"></path><path d="M738.73 442.02L715.89 612.34" stroke="hsl(278.79999999999995, 65.2%, 45.4%)" stroke-width="1.5"></path><path d="M738.73 442.02L895.76 315.06" stroke="hsl(278.79999999999995, 65.2%, 45.4%)" stroke-width="1.5"></path><path d="M715.89 612.34L715.89 612.34" stroke="hsl(278.79999999999995, 65.2%, 45.4%)" stroke-width="1.5"></path><path d="M910.61 -94.77L910.61 -94.77" stroke="hsl(278.79999999999995, 65.2%, 45.4%)" stroke-width="1.5"></path><path d="M910.61 -94.77L989.17 -54.37" stroke="hsl(278.79999999999995, 65.2%, 45.4%)" stroke-width="1.5"></path><path d="M910.61 -94.77L992.43 42.79" stroke="hsl(278.79999999999995, 65.2%, 45.4%)" stroke-width="1.5"></path><path d="M910.61 -94.77L1169.98 42.94" stroke="hsl(278.79999999999995, 65.2%, 45.4%)" stroke-width="1.5"></path><path d="M861.02 196.46L861.02 196.46" stroke="hsl(278.79999999999995, 65.2%, 45.4%)" stroke-width="1.5"></path><path d="M861.02 196.46L895.76 315.06" stroke="hsl(278.79999999999995, 65.2%, 45.4%)" stroke-width="1.5"></path><path d="M861.02 196.46L992.43 42.79" stroke="hsl(278.79999999999995, 65.2%, 45.4%)" stroke-width="1.5"></path><path d="M861.02 196.46L740.17 359.08" stroke="hsl(278.79999999999995, 65.2%, 45.4%)" stroke-width="1.5"></path><path d="M861.02 196.46L1003.55 361.54" stroke="hsl(278.79999999999995, 65.2%, 45.4%)" stroke-width="1.5"></path><path d="M895.76 315.06L895.76 315.06" stroke="hsl(278.79999999999995, 65.2%, 45.4%)" stroke-width="1.5"></path><path d="M895.76 315.06L1003.55 361.54" stroke="hsl(278.79999999999995, 65.2%, 45.4%)" stroke-width="1.5"></path><path d="M844.37 506.08L844.37 506.08" stroke="hsl(278.79999999999995, 65.2%, 45.4%)" stroke-width="1.5"></path><path d="M844.37 506.08L715.89 612.34" stroke="hsl(278.79999999999995, 65.2%, 45.4%)" stroke-width="1.5"></path><path d="M896.45 760.07L896.45 760.07" stroke="hsl(278.79999999999995, 65.2%, 45.4%)" stroke-width="1.5"></path><path d="M896.45 760.07L903.18 849.07" stroke="hsl(278.79999999999995, 65.2%, 45.4%)" stroke-width="1.5"></path><path d="M896.45 760.07L1035.83 772.25" stroke="hsl(278.79999999999995, 65.2%, 45.4%)" stroke-width="1.5"></path><path d="M896.45 760.07L1019.81 843.93" stroke="hsl(278.79999999999995, 65.2%, 45.4%)" stroke-width="1.5"></path><path d="M903.18 849.07L903.18 849.07" stroke="hsl(278.79999999999995, 65.2%, 45.4%)" stroke-width="1.5"></path><path d="M903.18 849.07L1019.81 843.93" stroke="hsl(278.79999999999995, 65.2%, 45.4%)" stroke-width="1.5"></path><path d="M989.17 -54.37L989.17 -54.37" stroke="hsl(278.79999999999995, 65.2%, 45.4%)" stroke-width="1.5"></path><path d="M989.17 -54.37L992.43 42.79" stroke="hsl(278.79999999999995, 65.2%, 45.4%)" stroke-width="1.5"></path><path d="M989.17 -54.37L1169.98 42.94" stroke="hsl(278.79999999999995, 65.2%, 45.4%)" stroke-width="1.5"></path><path d="M989.17 -54.37L994.64 193.3" stroke="hsl(278.79999999999995, 65.2%, 45.4%)" stroke-width="1.5"></path><path d="M989.17 -54.37L1146.26 174.03" stroke="hsl(278.79999999999995, 65.2%, 45.4%)" stroke-width="1.5"></path><path d="M992.43 42.79L992.43 42.79" stroke="hsl(278.79999999999995, 65.2%, 45.4%)" stroke-width="1.5"></path><path d="M1003.55 361.54L1003.55 361.54" stroke="hsl(278.79999999999995, 65.2%, 45.4%)" stroke-width="1.5"></path><path d="M1003.55 361.54L994.64 193.3" stroke="hsl(278.79999999999995, 65.2%, 45.4%)" stroke-width="1.5"></path><path d="M1003.55 361.54L844.37 506.08" stroke="hsl(278.79999999999995, 65.2%, 45.4%)" stroke-width="1.5"></path><path d="M989.3 590.23L989.3 590.23" stroke="hsl(278.79999999999995, 65.2%, 45.4%)" stroke-width="1.5"></path><path d="M989.3 590.23L844.37 506.08" stroke="hsl(278.79999999999995, 65.2%, 45.4%)" stroke-width="1.5"></path><path d="M989.3 590.23L1157.07 633.22" stroke="hsl(278.79999999999995, 65.2%, 45.4%)" stroke-width="1.5"></path><path d="M1035.83 772.25L1035.83 772.25" stroke="hsl(278.79999999999995, 65.2%, 45.4%)" stroke-width="1.5"></path><path d="M1035.83 772.25L1019.81 843.93" stroke="hsl(278.79999999999995, 65.2%, 45.4%)" stroke-width="1.5"></path><path d="M1035.83 772.25L1163.95 758.92" stroke="hsl(278.79999999999995, 65.2%, 45.4%)" stroke-width="1.5"></path><path d="M1019.81 843.93L1019.81 843.93" stroke="hsl(278.79999999999995, 65.2%, 45.4%)" stroke-width="1.5"></path><path d="M1157.07 633.22L1157.07 633.22" stroke="hsl(278.79999999999995, 65.2%, 45.4%)" stroke-width="1.5"></path><path d="M1157.07 633.22L1163.95 758.92" stroke="hsl(278.79999999999995, 65.2%, 45.4%)" stroke-width="1.5"></path><path d="M1157.07 633.22L1035.83 772.25" stroke="hsl(278.79999999999995, 65.2%, 45.4%)" stroke-width="1.5"></path><path d="M1163.95 758.92L1163.95 758.92" stroke="hsl(278.79999999999995, 65.2%, 45.4%)" stroke-width="1.5"></path><path d="M1163.95 758.92L1135.45 866.94" stroke="hsl(278.79999999999995, 65.2%, 45.4%)" stroke-width="1.5"></path><path d="M1135.45 866.94L1135.45 866.94" stroke="hsl(278.79999999999995, 65.2%, 45.4%)" stroke-width="1.5"></path><path d="M1135.45 866.94L1019.81 843.93" stroke="hsl(278.79999999999995, 65.2%, 45.4%)" stroke-width="1.5"></path><path d="M1135.45 866.94L1035.83 772.25" stroke="hsl(278.79999999999995, 65.2%, 45.4%)" stroke-width="1.5"></path><path d="M1135.45 866.94L903.18 849.07" stroke="hsl(278.79999999999995, 65.2%, 45.4%)" stroke-width="1.5"></path><path d="M1135.45 866.94L1157.07 633.22" stroke="hsl(278.79999999999995, 65.2%, 45.4%)" stroke-width="1.5"></path><path d="M1135.45 866.94L896.45 760.07" stroke="hsl(278.79999999999995, 65.2%, 45.4%)" stroke-width="1.5"></path><circle r="25" cx="-50.92" cy="866.64" fill="url(#SvgjsRadialGradient1093)"></circle><circle r="25" cx="56.75" cy="611.8" fill="url(#SvgjsRadialGradient1093)"></circle><circle r="25" cx="100.32" cy="862.89" fill="url(#SvgjsRadialGradient1093)"></circle><circle r="25" cx="324.11" cy="739.45" fill="url(#SvgjsRadialGradient1093)"></circle><circle r="25" cx="449.95" cy="900.32" fill="url(#SvgjsRadialGradient1093)"></circle><circle r="25" cx="629.76" cy="635.55" fill="url(#SvgjsRadialGradient1093)"></circle><circle r="25" cx="724.33" cy="767.46" fill="url(#SvgjsRadialGradient1093)"></circle><circle r="25" cx="772.75" cy="873.56" fill="url(#SvgjsRadialGradient1093)"></circle><circle r="25" cx="859.49" cy="610.68" fill="url(#SvgjsRadialGradient1093)"></circle><circle r="25" cx="994.64" cy="193.3" fill="url(#SvgjsRadialGradient1093)"></circle><circle r="25" cx="980.9" cy="479.15" fill="url(#SvgjsRadialGradient1093)"></circle><circle r="25" cx="1134.7" cy="-98.18" fill="url(#SvgjsRadialGradient1093)"></circle><circle r="25" cx="1169.98" cy="42.94" fill="url(#SvgjsRadialGradient1093)"></circle><circle r="25" cx="1146.26" cy="174.03" fill="url(#SvgjsRadialGradient1093)"></circle><circle r="25" cx="1121.77" cy="354.27" fill="url(#SvgjsRadialGradient1093)"></circle><circle r="25" cx="1180.29" cy="491.03" fill="url(#SvgjsRadialGradient1093)"></circle><circle r="5" cx="-46.87" cy="586.73" fill="#b58fc9"></circle><circle r="5" cx="-93.78" cy="722.06" fill="#b58fc9"></circle><circle r="5" cx="86.68" cy="742.09" fill="#b58fc9"></circle><circle r="5" cx="225.35" cy="579.82" fill="#b58fc9"></circle><circle r="5" cx="232.7" cy="759.89" fill="#b58fc9"></circle><circle r="5" cx="173.49" cy="884.9" fill="#b58fc9"></circle><circle r="5" cx="359.15" cy="847.24" fill="#b58fc9"></circle><circle r="5" cx="481.05" cy="506.25" fill="#b58fc9"></circle><circle r="5" cx="495.63" cy="611.99" fill="#b58fc9"></circle><circle r="5" cx="498.06" cy="731.56" fill="#b58fc9"></circle><circle r="5" cx="609.68" cy="461.33" fill="#b58fc9"></circle><circle r="5" cx="604.42" cy="723.5" fill="#b58fc9"></circle><circle r="5" cx="629.19" cy="884.09" fill="#b58fc9"></circle><circle r="5" cx="740.17" cy="359.08" fill="#b58fc9"></circle><circle r="5" cx="738.73" cy="442.02" fill="#b58fc9"></circle><circle r="5" cx="715.89" cy="612.34" fill="#b58fc9"></circle><circle r="5" cx="910.61" cy="-94.77" fill="#b58fc9"></circle><circle r="5" cx="861.02" cy="196.46" fill="#b58fc9"></circle><circle r="5" cx="895.76" cy="315.06" fill="#b58fc9"></circle><circle r="5" cx="844.37" cy="506.08" fill="#b58fc9"></circle><circle r="5" cx="896.45" cy="760.07" fill="#b58fc9"></circle><circle r="5" cx="903.18" cy="849.07" fill="#b58fc9"></circle><circle r="5" cx="989.17" cy="-54.37" fill="#b58fc9"></circle><circle r="5" cx="992.43" cy="42.79" fill="#b58fc9"></circle><circle r="5" cx="1003.55" cy="361.54" fill="#b58fc9"></circle><circle r="5" cx="989.3" cy="590.23" fill="#b58fc9"></circle><circle r="5" cx="1035.83" cy="772.25" fill="#b58fc9"></circle><circle r="5" cx="1019.81" cy="843.93" fill="#b58fc9"></circle><circle r="5" cx="1157.07" cy="633.22" fill="#b58fc9"></circle><circle r="5" cx="1163.95" cy="758.92" fill="#b58fc9"></circle><circle r="5" cx="1135.45" cy="866.94" fill="#b58fc9"></circle></g><defs><mask id="SvgjsMask1092"><rect width="1080" height="720" fill="#ffffff"></rect></mask><radialGradient id="SvgjsRadialGradient1093"><stop stop-color="#ffffff" offset="0.1"></stop><stop stop-color="rgba(106, 31, 147, 1)" offset="0.2"></stop><stop stop-color="rgba(106, 31, 147, 0)" offset="1"></stop></radialGradient></defs></svg>